<svg xmlns="http://www.w3.org/2000/svg" viewBox="0 0 323194 333334" shape-rendering="geometricPrecision" text-rendering="geometricPrecision" image-rendering="optimizeQuality" fill-rule="evenodd" clip-rule="evenodd"><path d="M190003 103366c-4589 0-8309 3720-8309 8309s3720 8309 8309 8309 8309-3720 8309-8309-3720-8309-8309-8309zm-27913-42239c9052 0 17722 2709 25739 7660 217-178 442-347 677-507 10696-7284 19737-15283 26020-24844 6115-9306 9781-20364 10029-34097 82-5239 4395-9418 9633-9336s9418 4396 9336 9634c-318 17643-5128 32000-13153 44214-7094 10797-16559 19699-27551 27606 11676 12837 21036 31034 26815 52484-191 63-380 134-569 212-13020 5456-39020 8785-66193 9039-25011 234-50674-2161-67770-7923-282-94-565-172-850-235 5693-21697 15033-40136 26734-53168-11236-8009-20906-17031-28122-28015-8025-12215-12835-26571-13153-44214-82-5238 4098-9552 9336-9634s9552 4098 9633 9336c247 13733 3914 24791 10029 34097 6283 9562 15324 17561 26020 24844 384 262 743 548 1075 853 8169-5168 17027-8006 26285-8006zm71092 88915l37 209 1189-681c307-122 611-245 907-370 902-374 1700-892 2381-1516l40570-23267c4387-2510 9933-1141 12670 3028l30420 41405c3102 4231 2186 10177-2046 13279-4231 3102-10177 2186-13278-2046l-25668-34936-44723 25648c290 4420 439 8911 439 13459 0 2191-34 4369-103 6531h46486c3429 0 6434 1813 8111 4532l29818 39276c3163 4170 2347 10115-1822 13279-4170 3163-10115 2347-13279-1823l-27497-36219h-42239c-361 0-716-20-1066-59-747 5896-1748 11638-2982 17191h31789c5259 0 9522 4263 9522 9522v87330c0 5259-4264 9522-9522 9522-5259 0-9522-4264-9522-9522v-77807h-27660c-11650 33381-32457 56815-56699 60779V159336c25493-689 49658-4029 63769-9292zm-80092 156437c-23529-4749-43651-27877-55030-60501-237 18-476 26-717 26H69423v77807c0 5259-4263 9522-9522 9522s-9522-4264-9522-9522v-87330c0-5259 4264-9522 9522-9522h32778c-1246-5603-2255-11396-3004-17349-656 143-1335 218-2033 218H45403l-27497 36219c-3163 4170-9109 4986-13279 1823s-4986-9109-1822-13279l29818-39276c1677-2719 4682-4532 8111-4532h46909c189 0 377 6 564 17-68-2169-104-4351-104-6548 0-4293 133-8533 392-12713-529-186-1049-421-1554-707l-44079-25074-25696 34976c-3102 4231-9047 5147-13278 2046-4231-3102-5147-9047-2046-13279l30704-41792 4 3c2807-3839 8108-5048 12344-2644l42293 24057c782 681 1709 1221 2753 1571l20 7 843 479 32-189c16457 5367 39275 7999 62256 8413v147070zm-18913-203113c-4589 0-8309 3720-8309 8309s3720 8309 8309 8309 8309-3720 8309-8309-3720-8309-8309-8309z"/></svg>