<svg xmlns="http://www.w3.org/2000/svg" viewBox="0 0 122.88 89.92"><path d="M87.4 45.48l9.13.03a9.156 9.156 0 01-4.05 7.56l-5.08-7.59zM77.64 1.31a.777.777 0 01.05-1.1c.32-.29.81-.27 1.11.05.59.64 1.17 1.32 1.74 2.03.55.69 1.08 1.41 1.59 2.14.24.36.15.84-.21 1.09-.36.24-.84.15-1.09-.21-.48-.7-.99-1.39-1.52-2.05-.54-.68-1.1-1.34-1.67-1.95zM64.05 3.04c-.37-.22-.5-.7-.28-1.07.22-.37.7-.5 1.07-.29 2.08 1.21 4.74 3.76 6.98 6.7 1.99 2.62 3.67 5.57 4.33 8.17.11.42-.15.85-.57.95a.777.777 0 01-.95-.57c-.61-2.39-2.18-5.14-4.06-7.61-2.12-2.77-4.6-5.17-6.52-6.28zm6.99-.97a.787.787 0 01-.07-1.1c.29-.32.78-.35 1.1-.07 1.4 1.24 2.88 2.83 4.22 4.57 1.26 1.63 2.41 3.39 3.27 5.11.19.39.04.86-.35 1.05a.78.78 0 01-1.05-.35c-.81-1.62-1.91-3.3-3.11-4.86-1.28-1.66-2.69-3.17-4.01-4.35zM44.59 24c-.14.59-.07 1.27.14 1.97.09.3.22.61.36.9.15.3.32.6.52.89.19.29.41.56.64.81.23.24.46.47.71.66l.01.01c.6.47 1.28.78 1.95.84.89.08 2.19-.63 2.97-1.15l.17-.12.02-.01c.3-.2.61-.39.91-.58.18-.1.38-.13.56-.09.18.04.34.15.45.31a.3.3 0 01.06.11l.3.53.01.01c.39.7.77 1.39 1.17 2.06.39.65.78 1.26 1.17 1.78l.01.01.04.06c.04.06.1.15.17.23l.01.02c.24.33.49.67.75.98.25.3.49.55.73.72.17.12.33.17.5.13.19-.04.39-.2.62-.52.05-.08.1-.17.15-.25l.15-.24.01-.01c.15-.23.3-.47.41-.71.08-.18.14-.36.16-.55-.09-.02-.2-.04-.31-.05h-.01c-.81-.1-1.61-.19-1.87-1.77v-.01l-.03-.2c-.03-.21-.05-.36-.07-.45a.49.49 0 00-.03-.13v.02c-.07-.04-.15-.08-.26-.13l-.09-.04h-.01c-.27-.13-.48-.32-.65-.55-.18-.24-.31-.53-.39-.83-.08-.3-.13-.63-.15-.95-.02-.38-.01-.75.03-1.06v-.01a.78.78 0 01.13-.34l.01-.02c.07-.1.17-.17.28-.23.01 0 .02-.01.03-.01 2.27-1.02 4.19-1.54 5.86-1.81 1.39-.22 2.6-.27 3.69-.28-2.25-1.49-4.56-3.87-6.51-6.52-1.99-2.72-3.61-5.73-4.39-8.37-.52 1.52-1.27 3.37-2.53 5.39-1.42 2.29-8.18 7.9-8.56 9.55zm14.85-10.17c.76-.3 1.51-.44 2.25-.36 2.07.23 3.57 1.85 3.39 3.98-.07.8-.35 1.68-.85 2.65.42.4.87.81 1.35 1.23.69.6 1.39 1.12 2.09 1.56.63.4 1.27.72 1.9.95.06-.01.12-.02.17-.04.06-.02.11-.05.16-.08.04-.03.09-.07.13-.11.1-.21.17-.45.2-.72.03-.3.03-.64-.02-1.01-.14-1.11-.62-2.45-1.33-3.88-.78-1.57-1.82-3.24-3-4.83a37.314 37.314 0 00-3.67-4.28c-1.19-1.18-2.36-2.14-3.39-2.73l-.01-.01c-.38-.21-.73-.37-1.05-.47l-.02-.01c-.28-.08-.52-.11-.72-.08-.05.01-.08.01-.11.02l-.01.01c-.02.03-.05.07-.07.12-.01.02-.03.05-.05.09l-.03.06v.04c-.1.62 0 1.43.25 2.37.27 1.01.72 2.16 1.32 3.38.38.77.75 1.48 1.12 2.15zM58.1 30.21zm9.13-4.76h-.02c-2.28.02-5.14.05-9.18 1.79 0 .16 0 .32.01.48.02.19.04.37.09.54.04.12.08.23.13.31.04.06.08.11.13.14l.09.04h.01l.02.01c.44.22.67.33.87.66v.01c.17.27.21.55.3 1.07l.01.05v.01l.03.2v.01c.08.45.32.48.57.51 1.22.14 1.66.72 1.66 1.46 0 .67-.39 1.46-.86 2.16-.06.09-.11.16-.14.22-.04.07-.09.14-.13.21l-.02.03c-.01.01-.01.02-.02.03-.53.76-1.07 1.13-1.62 1.23-.56.1-1.09-.08-1.61-.44-.66-.46-1.22-1.21-1.76-1.93l-.08-.11-.08-.11-.14-.2-.01-.02c-.42-.56-.82-1.2-1.22-1.87-.37-.63-.76-1.33-1.16-2.04l-.01.01c-.08.05-.16.1-.22.14l-.29.19-.02.01c-1.18.77-2.22 1.48-3.81 1.32-.96-.1-1.89-.53-2.72-1.17-.32-.25-.62-.52-.89-.82-.28-.3-.54-.64-.78-.98-.23-.34-.44-.7-.62-1.07a7.13 7.13 0 01-.44-1.13v-.01c-.29-.95-.37-1.91-.17-2.76.85-3.59 8.77-7.44 11.6-16.47v-.01c.13-.43.26-.82.38-1.18.13-.36.26-.67.4-.93l.01-.01c.07-.13.14-.24.21-.33.08-.11.17-.2.28-.28.11-.08.23-.14.37-.19.13-.04.27-.08.44-.1.41-.05.85-.01 1.31.13.45.13.93.34 1.44.63l.01.01c1.13.64 2.39 1.67 3.66 2.92 1.32 1.3 2.65 2.86 3.85 4.49 1.24 1.68 2.35 3.45 3.17 5.12.76 1.55 1.28 3.02 1.44 4.28.07.53.07 1.03.01 1.49-.06.45-.2.86-.4 1.22l-.01.01c-.6 1.06-2.52 1.04-3.68 1.03-.15-.01-.29-.01-.39-.01zM15.67 19.4h22.4l-.61 3.4H17.21v59.32h88.19V22.81H79.12l1.23-3.4h26.29c1.19 0 2.17.98 2.17 2.17v61.16c0 1.01-.69 1.86-1.63 2.1h13.16c1.4 0 2.54 1.14 2.54 2.54 0 1.4-1.14 2.54-2.54 2.54H2.54c-1.4 0-2.54-1.14-2.54-2.54 0-1.4 1.14-2.54 2.54-2.54h12.59c-.93-.24-1.63-1.1-1.63-2.1V21.58c0-1.2.98-2.18 2.17-2.18zm42.2 66.39h7.14c.67 0 1.22.55 1.22 1.22 0 .67-.55 1.22-1.22 1.22h-7.14c-.67 0-1.22-.55-1.22-1.22 0-.67.55-1.22 1.22-1.22zM37.59 38.31h2.78c.15 0 .27.12.27.27v9.91c0 .15-.12.27-.27.27h-2.78c-.15 0-.27-.12-.27-.27v-9.91c0-.15.12-.27.27-.27zm-12.58-3.35h2.78c.15 0 .27.12.27.27v13.26c0 .15-.12.27-.27.27h-2.78c-.15 0-.27-.12-.27-.27V35.23c0-.15.12-.27.27-.27zm6.29-1.88h2.78c.15 0 .27.12.27.27v15.14c0 .15-.12.27-.27.27H31.3c-.15 0-.27-.12-.27-.27V33.35c0-.15.12-.27.27-.27zm-6.13 41.43c-.61 0-1.1-.5-1.1-1.11 0-.61.49-1.11 1.1-1.11H97.7c.61 0 1.1.5 1.1 1.11 0 .61-.49 1.11-1.1 1.11H25.17zm-.18-8.09c-.61 0-1.1-.5-1.1-1.11 0-.61.49-1.11 1.1-1.11h31.16c.61 0 1.1.5 1.1 1.11 0 .61-.49 1.11-1.1 1.11H24.99zm35.42 0c-.61 0-1.1-.5-1.1-1.11 0-.61.49-1.11 1.1-1.11H97.7c.61 0 1.1.5 1.1 1.11 0 .61-.49 1.11-1.1 1.11H60.41zm-35.42-7.21c-.61 0-1.1-.5-1.1-1.11 0-.61.49-1.11 1.1-1.11h47.07c.61 0 1.1.5 1.1 1.11 0 .61-.49 1.11-1.1 1.11H24.99zm61.47-15.54l-.49-9.76c-.01-.19.14-.36.33-.37.06 0 .12-.01.2-.01h.2c2.68-.03 5.14.99 6.98 2.68a10.14 10.14 0 013.25 6.74c.01.19-.13.36-.32.37l-9.76.7a.347.347 0 01-.37-.32c-.02-.02-.02-.02-.02-.03zm.23-9.44l.45 9.06 9.05-.65a9.38 9.38 0 00-2.99-5.92c-1.71-1.58-4-2.52-6.5-2.5l-.01.01zm-1.32 10.83l4.89 8.48a9.786 9.786 0 01-14.68-8.48c0-4.86 3.56-8.98 8.37-9.68l1.42 9.68z" fill-rule="evenodd" clip-rule="evenodd"/></svg>